# 3ds Max Wavefront OBJ Exporter v0.97b - (c)2007 guruware
# File Created: 08.04.2018 15:31:00

#
# object Box001
#

v  -4.1617 -4.1617 44.5842
v  4.1617 -4.1617 44.5842
v  4.1617 4.1617 44.5842
v  -4.1617 4.1617 44.5842
v  0.0000 0.0000 0.0000
v  10.0000 -10.0000 14.5842
v  -10.0000 -10.0000 14.5842
v  10.0000 10.0000 14.5842
v  -10.0000 10.0000 14.5842
v  4.1617 -4.1617 14.5842
v  -4.1617 -4.1617 14.5842
v  4.1617 4.1617 14.5842
v  -4.1617 4.1617 14.5842
# 13 vertices

vn 0.0000 0.0000 1.0000
vn 0.0000 -0.8247 -0.5655
vn 0.8247 0.0000 -0.5655
vn 0.0000 0.8247 -0.5655
vn -0.8247 0.0000 -0.5655
vn 0.0000 -1.0000 0.0000
vn 1.0000 0.0000 0.0000
vn 0.0000 1.0000 0.0000
vn -1.0000 0.0000 0.0000
# 9 vertex normals

vt 0.5773 0.2643 0.0000
vt 0.6874 0.2643 0.0000
vt 0.6874 0.3744 0.0000
vt 0.5773 0.3744 0.0000
vt 0.4339 0.5053 0.0000
vt 0.5661 0.7392 0.0000
vt 0.3016 0.7392 0.0000
vt 0.3016 0.0233 0.0000
vt 0.5702 0.0305 0.0000
vt 0.4339 0.2572 0.0000
vt 0.5773 0.2498 0.0000
vt 0.7219 0.0233 0.0000
vt 0.8459 0.2570 0.0000
vt 0.5702 0.2643 0.0000
vt 0.4379 0.4982 0.0000
vt 0.3016 0.2715 0.0000
vt 0.0300 0.0233 0.0000
vt 0.2945 0.0233 0.0000
vt 0.2173 0.1005 0.0000
vt 0.1072 0.1005 0.0000
vt 0.2945 0.2878 0.0000
vt 0.2173 0.2106 0.0000
vt 0.0300 0.2878 0.0000
vt 0.1072 0.2106 0.0000
vt 0.0300 0.2949 0.0000
vt 0.1401 0.2949 0.0000
vt 0.1401 0.6917 0.0000
vt 0.0300 0.6917 0.0000
vt 0.9700 0.5053 0.0000
vt 0.9700 0.6154 0.0000
vt 0.5732 0.6154 0.0000
vt 0.5732 0.5053 0.0000
vt 0.2573 0.6917 0.0000
vt 0.1472 0.6917 0.0000
vt 0.1472 0.2949 0.0000
vt 0.2573 0.2949 0.0000
vt 0.5732 0.7326 0.0000
vt 0.5732 0.6225 0.0000
vt 0.9700 0.6225 0.0000
vt 0.9700 0.7326 0.0000
# 40 texture coords

g Box001
s 4
f 1/1/1 2/2/1 3/3/1 4/4/1 
s 8
f 5/5/2 6/6/2 7/7/2 
s 16
f 5/8/3 8/9/3 6/10/3 
s 32
f 5/11/4 9/12/4 8/13/4 
s 64
f 5/14/5 7/15/5 9/16/5 
s off
f 7/17/1 6/18/1 10/19/1 11/20/1 
f 6/18/1 8/21/1 12/22/1 10/19/1 
f 8/21/1 9/23/1 13/24/1 12/22/1 
f 9/23/1 7/17/1 11/20/1 13/24/1 
f 11/25/6 10/26/6 2/27/6 1/28/6 
f 10/29/7 12/30/7 3/31/7 2/32/7 
f 12/33/8 13/34/8 4/35/8 3/36/8 
f 13/37/9 11/38/9 1/39/9 4/40/9 
# 9 polygons - 4 triangles

