# 3ds Max Wavefront OBJ Exporter v0.97b - (c)2007 guruware
# File Created: 26.03.2018 07:25:20

#
# object Box001
#

v  -32.0000 32.0000 -32.0000
v  32.0000 32.0000 -32.0000
v  32.0000 32.0000 32.0000
v  -32.0000 32.0000 32.0000
v  -32.0000 -32.0000 -32.0000
v  -32.0000 -32.0000 32.0000
v  32.0000 -32.0000 32.0000
v  32.0000 -32.0000 -32.0000
# 8 vertices

vn 0.0000 -1.0000 0.0000
vn 0.0000 1.0000 0.0000
vn 0.0000 0.0000 1.0000
vn -1.0000 0.0000 0.0000
vn 0.0000 0.0000 -1.0000
vn 1.0000 0.0000 0.0000
# 6 vertex normals

vt 0.5000 0.2510 0.0000
vt 0.2510 0.2510 0.0000
vt 0.2510 0.5000 0.0000
vt 0.5000 0.5000 0.0000
vt 0.7490 0.2510 0.0000
vt 0.7490 0.5000 0.0000
vt 0.9980 0.5000 0.0000
vt 0.9980 0.2510 0.0000
vt 0.5000 0.0020 0.0000
vt 0.2510 0.0020 0.0000
vt 0.0020 0.2510 0.0000
vt 0.0020 0.5000 0.0000
vt 0.2510 0.7490 0.0000
vt 0.5000 0.7490 0.0000
# 14 texture coords

g Box001
s 2
f 1/1/1 2/2/1 3/3/1 4/4/1 
s 4
f 5/5/2 6/6/2 7/7/2 8/8/2 
s 8
f 1/1/3 5/9/3 8/10/3 2/2/3 
s 16
f 2/2/4 8/11/4 7/12/4 3/3/4 
s 32
f 3/3/5 7/13/5 6/14/5 4/4/5 
s 64
f 4/4/6 6/6/6 5/5/6 1/1/6 
# 6 polygons

